# File created by Blade
# Date/Time:  Tue Jan 27 20:12:12 2015
#---------------------------------------------------------
:version 1.10
:name HOM
:units
  mass 1.0
  length 1.000000
  angle deg
:documentation
     Acclaim Skeleton File
:root
   axis xyz
   order TX TY TZ RX RY RZ
   position 0.000000 0.000000 0.000000
   orientation 0 0 0
:bonedata
   begin
      id 1
      name Spine_dum
      direction 0.000000 1.000000 0.000000
      length 6.116652
      axis 0.0 0.0 0.0 xyz
   end
   begin
      id 2
      name LeftUpLeg_dum
      direction 1.000000 0.000000 0.000000
      length 4.711765
      axis 0.0 0.0 0.0 xyz
   end
   begin
      id 3
      name RightUpLeg_dum
      direction -1.000000 0.000000 0.000000
      length 4.711765
      axis 0.0 0.0 0.0 xyz
   end
   begin
      id 4
      name Spine
      direction 0.000000 1.000000 0.000000
      length 0.000000
      axis 0.0 0.0 0.0 xyz
      dof rx ry rz
   end
   begin
      id 5
      name Spine_dum1
      direction 0.000000 1.000000 0.000000
      length 15.225563
      axis 0.0 0.0 0.0 xyz
   end
   begin
      id 6
      name Spine_dum2
      direction 0.000000 1.000000 0.000000
      length 8.977654
      axis 0.0 0.0 0.0 xyz
   end
   begin
      id 7
      name Spine_dum3
      direction 0.000000 1.000000 0.000000
      length 8.977654
      axis 0.0 0.0 0.0 xyz
   end
   begin
      id 8
      name Head
      direction 0.000000 1.000000 0.000000
      length 4.527550
      axis 0.0 0.0 0.0 xyz
      dof rx ry rz
   end
   begin
      id 9
      name LeftShoulder
      direction 1.000000 0.000000 0.000000
      length 7.110130
      axis 0.0 0.0 -90.0 xyz
      dof rx ry rz
   end
   begin
      id 10
      name LeftArm
      direction 1.000000 0.000000 0.000000
      length 10.398341
      axis 0.0 0.0 -90.0 xyz
      dof rx ry rz
   end
   begin
      id 11
      name LeftForeArm
      direction 1.000000 0.000000 0.000000
      length 8.888997
      axis 0.0 0.0 -90.0 xyz
      dof ry rz rx
   end
   begin
      id 12
      name LeftHand
      direction 0.000000 0.000000 0.000000
      length 0.000000
      axis 0.0 0.0 -90.0 xyz
      dof rx ry rz
   end
   begin
      id 13
      name LeftHand_dum1
      direction 0.000000 0.000000 0.000000
      length 0.000000
      axis 0.0 0.0 -90.0 xyz
   end
   begin
      id 14
      name LeftHand_dum2
      direction 1.000000 0.000000 0.000000
      length 3.937000
      axis 0.0 0.0 -90.0 xyz
   end
   begin
      id 15
      name LeftHandThumb1
      direction 0.000000 0.000000 1.000000
      length 3.937000
      axis 0.0 0.0 -90.0 xyz
      dof rx rz ry
   end
   begin
      id 16
      name RightShoulder
      direction -1.000000 0.000000 0.000000
      length 7.110130
      axis 0.0 0.0 90.0 xyz
      dof rx ry rz
   end
   begin
      id 17
      name RightArm
      direction -1.000000 0.000000 0.000000
      length 10.398341
      axis 0.0 0.0 90.0 xyz
      dof rx ry rz
   end
   begin
      id 18
      name RightForeArm
      direction -1.000000 0.000000 0.000000
      length 8.888997
      axis 0.0 0.0 90.0 xyz
      dof ry rz rx
   end
   begin
      id 19
      name RightHand
      direction 0.000000 0.000000 0.000000
      length 0.000000
      axis 0.0 0.0 90.0 xyz
      dof rx ry rz
   end
   begin
      id 20
      name RightHand_dum1
      direction 0.000000 0.000000 0.000000
      length 0.000000
      axis 0.0 0.0 90.0 xyz
   end
   begin
      id 21
      name RightHand_dum2
      direction -1.000000 0.000000 0.000000
      length 3.937000
      axis 0.0 0.0 90.0 xyz
   end
   begin
      id 22
      name RightHandThumb1
      direction 0.000000 0.000000 1.000000
      length 3.937000
      axis 0.0 0.0 90.0 xyz
      dof rx rz ry
   end
   begin
      id 23
      name LeftUpLeg
      direction 0.000000 -1.000000 0.000000
      length 15.510451
      axis 0.0 0.0 0.0 xyz
      dof rx ry rz
   end
   begin
      id 24
      name LeftLeg
      direction 0.000000 -1.000000 0.000000
      length 14.858061
      axis 0.0 0.0 0.0 xyz
      dof rx ry rz
   end
   begin
      id 25
      name LeftFoot
      direction 0.000000 -0.258819 0.965926
      length 5.128852
      axis 15.0 0.0 0.0 xyz
      dof rx ry rz
   end
   begin
      id 26
      name LeftToeBase
      direction 0.000000 0.000000 1.000000
      length 2.952750
      axis 0.0 0.0 0.0 xyz
      dof rx ry rz
   end
   begin
      id 27
      name RightUpLeg
      direction 0.000000 -1.000000 0.000000
      length 15.510451
      axis 0.0 0.0 0.0 xyz
      dof rx ry rz
   end
   begin
      id 28
      name RightLeg
      direction 0.000000 -1.000000 0.000000
      length 14.858061
      axis 0.0 0.0 0.0 xyz
      dof rx ry rz
   end
   begin
      id 29
      name RightFoot
      direction 0.000000 -0.258819 0.965926
      length 5.128852
      axis 15.0 0.0 0.0 xyz
      dof rx ry rz
   end
   begin
      id 30
      name RightToeBase
      direction 0.000000 0.000000 1.000000
      length 2.952750
      axis 0.0 0.0 0.0 xyz
      dof rx ry rz
   end
:hierarchy
   begin
      root Spine_dum LeftUpLeg_dum RightUpLeg_dum
      Spine_dum Spine
      LeftUpLeg_dum LeftUpLeg
      RightUpLeg_dum RightUpLeg
      Spine Spine_dum1 Spine_dum2 Spine_dum3
      Spine_dum1 Head
      Spine_dum2 LeftShoulder
      Spine_dum3 RightShoulder
      LeftShoulder LeftArm
      LeftArm LeftForeArm
      LeftForeArm LeftHand
      LeftHand LeftHand_dum1 LeftHand_dum2
      LeftHand_dum1 LeftHandThumb1
      RightShoulder RightArm
      RightArm RightForeArm
      RightForeArm RightHand
      RightHand RightHand_dum1 RightHand_dum2
      RightHand_dum1 RightHandThumb1
      LeftUpLeg LeftLeg
      LeftLeg LeftFoot
      LeftFoot LeftToeBase
      RightUpLeg RightLeg
      RightLeg RightFoot
      RightFoot RightToeBase
   end

# File created by Blade
# Date/Time:  Tue Jan 27 20:12:02 2015
# Frame Rate: 120.000 fps
#------------------------------------------------------
:FULLY-SPECIFIED
:DEGREES
1345
root 8.391072 32.273434 -3.963322 7.814564 1.466837 -0.286321
Spine 1.041721 9.158770 -4.691753
Head 10.213644 -11.925976 1.665572
LeftShoulder -16.811410 0.685101 29.050878
LeftArm -18.978016 -41.147657 -66.460953
LeftForeArm -7.958342 -0.000000 96.108975
LeftHand 18.378150 -0.000000 12.198084
LeftHandThumb1 -26.253704 0.000000 33.147579
RightShoulder -20.278052 -23.260249 -23.564666
RightArm 11.470660 -38.179933 89.431098
RightForeArm -23.764308 0.000000 103.168668
RightHand 18.032153 0.000000 -0.294623
RightHandThumb1 -24.326973 -0.000000 -32.862282
LeftUpLeg -1.920238 1.407827 -8.063970
LeftLeg -3.547229 -0.000000 0.000000
LeftFoot -11.989327 11.423462 -13.737296
LeftToeBase 23.146783 -0.000000 -0.000000
RightUpLeg -5.753960 -5.963818 5.833171
RightLeg 69.649783 -0.000000 -0.000000
RightFoot -17.371503 -11.586028 34.147536
RightToeBase 15.990333 -0.000000 -0.000000
1346
root 8.384088 32.283386 -3.970234 7.770668 1.433565 -0.311913
Spine 1.091336 9.145605 -4.723424
Head 10.266652 -11.901728 1.786851
LeftShoulder -16.783316 0.662928 29.137803
LeftArm -19.016335 -41.173819 -66.451006
LeftForeArm -7.914737 0.000000 96.032725
LeftHand 18.407520 -0.000000 12.265829
LeftHandThumb1 -26.253704 0.000000 33.147579
RightShoulder -20.324168 -23.273624 -23.517314
RightArm 11.469978 -38.174384 89.478473
RightForeArm -23.752888 0.000000 103.158762
RightHand 18.016758 0.000000 -0.254935
RightHandThumb1 -24.326973 -0.000000 -32.862282
LeftUpLeg -1.836080 1.292398 -8.035203
LeftLeg -3.666845 -0.000000 0.000000
LeftFoot -11.880619 11.699242 -13.672563
LeftToeBase 23.082661 -0.000000 -0.000000
RightUpLeg -5.867993 -5.401195 5.807269
RightLeg 67.355521 -0.000000 -0.000000
RightFoot -19.365033 -11.527846 34.180554
RightToeBase 13.656186 -0.000000 -0.000000
1347
root 8.369195 32.294335 -3.972130 7.721335 1.350189 -0.380033
Spine 1.123376 9.176895 -4.747352
Head 10.345071 -11.881205 1.940795
LeftShoulder -16.772808 0.664919 29.240349
LeftArm -19.016117 -41.205929 -66.451932
LeftForeArm -7.879287 -0.000000 95.937604
LeftHand 18.368964 -0.000000 12.364508
LeftHandThumb1 -26.253704 0.000000 33.147579
RightShoulder -20.354316 -23.219045 -23.476295
RightArm 11.382784 -38.195661 89.572993
RightForeArm -23.779505 -0.000000 103.145156
RightHand 17.969268 -0.000000 -0.296198
RightHandThumb1 -24.326973 -0.000000 -32.862282
LeftUpLeg -1.776629 1.384445 -7.964059
LeftLeg -3.709481 -0.000000 0.000000
LeftFoot -11.805108 11.821602 -13.531921
LeftToeBase 22.896841 -0.000000 -0.000000
RightUpLeg -5.953416 -4.808802 5.811923
RightLeg 64.999705 -0.000000 -0.000000
RightFoot -21.366312 -11.668533 33.911334
RightToeBase 14.699060 -0.000000 -0.000000
1348
root 8.360324 32.309017 -3.985421 7.698073 1.277345 -0.472086
Spine 1.169728 9.173591 -4.692647
Head 10.399253 -11.801434 2.021381
LeftShoulder -16.788018 0.598528 29.279513
LeftArm -19.072451 -41.261387 -66.412995
LeftForeArm -7.822253 -0.000000 95.859245
LeftHand 18.318854 0.000000 12.477405
LeftHandThumb1 -26.253704 0.000000 33.147579
RightShoulder -20.361992 -23.372834 -23.390452
RightArm 11.619265 -38.171026 89.477646
RightForeArm -23.817917 -0.000000 103.135194
RightHand 17.970524 -0.000000 -0.291730
RightHandThumb1 -24.326973 -0.000000 -32.862282
LeftUpLeg -1.707767 1.150714 -7.867237
LeftLeg -3.862886 -0.000000 0.000000
LeftFoot -11.719441 12.271347 -13.507532
LeftToeBase 22.869201 -0.000000 -0.000000
RightUpLeg -6.079500 -4.235065 5.811776
RightLeg 62.633675 -0.000000 -0.000000
RightFoot -22.926573 -11.961891 33.440451
RightToeBase 14.729930 -0.000000 -0.000000
1349
root 8.342886 32.324098 -3.993942 7.680399 1.185786 -0.599784
Spine 1.183726 9.229687 -4.644571
Head 10.489983 -11.771899 2.164135
LeftShoulder -16.780783 0.604808 29.391032
LeftArm -19.046906 -41.308246 -66.494870
LeftForeArm -7.757053 -0.000000 95.740270
LeftHand 18.338579 -0.000000 12.647256
LeftHandThumb1 -26.253704 0.000000 33.147579
RightShoulder -20.346333 -23.050244 -23.490654
RightArm 11.170701 -38.177434 89.826583
RightForeArm -23.807018 -0.000000 103.079027
RightHand 18.032487 -0.000000 -0.298112
RightHandThumb1 -24.326973 -0.000000 -32.862282
LeftUpLeg -1.660306 1.183224 -7.735395
LeftLeg -3.971112 -0.000000 0.000000
LeftFoot -11.667494 12.476246 -13.450399
LeftToeBase 22.902988 -0.000000 -0.000000
RightUpLeg -6.160012 -3.607566 5.862946
RightLeg 60.187377 -0.000000 -0.000000
RightFoot -24.192040 -12.246551 33.007195
RightToeBase 14.106383 -0.000000 -0.000000
1350
root 8.332506 32.340202 -4.007600 7.699918 1.083234 -0.677704
Spine 1.176628 9.288485 -4.644744
Head 10.558892 -11.728108 2.305388
LeftShoulder -16.762353 0.479093 29.490107
LeftArm -19.180079 -41.367079 -66.431434
LeftForeArm -7.716099 -0.000000 95.651154
LeftHand 18.362682 -0.000000 12.776492
LeftHandThumb1 -26.253704 0.000000 33.147579
RightShoulder -20.360437 -23.052510 -23.453932
RightArm 11.172500 -38.170760 89.852611
RightForeArm -23.739393 -0.000000 103.058705
RightHand 18.085318 -0.000000 -0.270952
RightHandThumb1 -24.326973 -0.000000 -32.862282
LeftUpLeg -1.632482 1.025268 -7.659961
LeftLeg -4.131800 -0.000000 0.000000
LeftFoot -11.539201 12.908056 -13.341212
LeftToeBase 22.803762 -0.000000 -0.000000
RightUpLeg -6.299274 -2.970826 5.818350
RightLeg 57.778959 -0.000000 -0.000000
RightFoot -25.288223 -12.584305 32.626621
RightToeBase 14.305160 -0.000000 -0.000000
